HIERARCHY
ROOT hip
{
  OFFSET 0 0 0
  CHANNELS 6 Xposition Yposition Zposition Zrotation Yrotation Xrotation
  JOINT abdomen
  {
    OFFSET 0 20.6881 -0.73152
    CHANNELS 3 Zrotation Xrotation Yrotation
    JOINT chest
    {
      OFFSET 0 11.7043 -0.48768
      CHANNELS 3 Zrotation Xrotation Yrotation
      JOINT neck
      {
        OFFSET 0 22.1894 -2.19456
        CHANNELS 3 Zrotation Xrotation Yrotation
        JOINT head
        {
          OFFSET -0.24384 7.07133 1.2192
          CHANNELS 3 Zrotation Xrotation Yrotation
          JOINT leftEye
          {
            OFFSET 4.14528 8.04674 8.04672
            CHANNELS 3 Zrotation Xrotation Yrotation
            End Site
            {
              OFFSET 1 0 0
            }
          }
          JOINT rightEye
          {
            OFFSET -3.6576 8.04674 8.04672
            CHANNELS 3 Zrotation Xrotation Yrotation
            End Site
            {
              OFFSET 1 0 0
            }
          }
        }
      }
      JOINT rCollar
      {
        OFFSET -2.68224 19.2634 -4.8768
        CHANNELS 3 Zrotation Xrotation Yrotation
        JOINT rShldr
        {
          OFFSET -8.77824 -1.95073 1.46304
          CHANNELS 3 Zrotation Xrotation Yrotation
          JOINT rForeArm
          {
            OFFSET -28.1742 -1.7115 0.48768
            CHANNELS 3 Zrotation Xrotation Yrotation
            JOINT rHand
            {
              OFFSET -22.5879 0.773209 7.07136
              CHANNELS 3 Zrotation Xrotation Yrotation
              JOINT rThumb1
              {
                OFFSET -1.2192 -0.487915 3.41376
                CHANNELS 3 Zrotation Xrotation Yrotation
                JOINT rThumb2
                {
                  OFFSET -3.37035 -0.52449 3.41376
                  CHANNELS 3 Zrotation Xrotation Yrotation
                  End Site
                  {
                    OFFSET -1.78271 -1.18214 1.43049
                  }
                }
              }
              JOINT rIndex1
              {
                OFFSET -7.75947 0.938293 5.60832
                CHANNELS 3 Zrotation Xrotation Yrotation
                JOINT rIndex2
                {
                  OFFSET -2.54057 -0.884171 1.56538
                  CHANNELS 3 Zrotation Xrotation Yrotation
                  End Site
                  {
                    OFFSET -1.62519 -0.234802 1.16502
                  }
                }
              }
              JOINT rMid1
              {
                OFFSET -8.24714 1.18213 3.41376
                CHANNELS 3 Zrotation Xrotation Yrotation
                JOINT rMid2
                {
                  OFFSET -3.10165 -0.590103 1.0647
                  CHANNELS 3 Zrotation Xrotation Yrotation
                  End Site
                  {
                    OFFSET -2.48547 -0.328903 0.83742
                  }
                }
              }
              JOINT rRing1
              {
                OFFSET -8.82822 0.546677 1.51678
                CHANNELS 3 Zrotation Xrotation Yrotation
                JOINT rRing2
                {
                  OFFSET -2.60934 -0.819778 -0.0198488
                  CHANNELS 3 Zrotation Xrotation Yrotation
                  End Site
                  {
                    OFFSET -2.33842 -0.294052 0.168128
                  }
                }
              }
              JOINT rPinky1
              {
                OFFSET -8.27202 -0.0477905 -0.4584
                CHANNELS 3 Zrotation Xrotation Yrotation
                JOINT rPinky2
                {
                  OFFSET -1.82734 -0.647385 -0.700984
                  CHANNELS 3 Zrotation Xrotation Yrotation
                  End Site
                  {
                    OFFSET -1.69225 -0.51767 -0.607171
                  }
                }
              }
            }
          }
        }
      }
      JOINT lCollar
      {
        OFFSET 2.68224 19.2634 -4.8768
        CHANNELS 3 Zrotation Xrotation Yrotation
        JOINT lShldr
        {
          OFFSET 8.77824 -1.95073 1.46304
          CHANNELS 3 Zrotation Xrotation Yrotation
          JOINT lForeArm
          {
            OFFSET 28.1742 -1.7115 0.48768
            CHANNELS 3 Zrotation Xrotation Yrotation
            JOINT lHand
            {
              OFFSET 22.5879 0.773209 7.07136
              CHANNELS 3 Zrotation Xrotation Yrotation
              JOINT lThumb1
              {
                OFFSET 1.2192 -0.487915 3.41376
                CHANNELS 3 Zrotation Xrotation Yrotation
                JOINT lThumb2
                {
                  OFFSET 3.37035 -0.52449 3.41376
                  CHANNELS 3 Zrotation Xrotation Yrotation
                  End Site
                  {
                    OFFSET 1.78271 -1.18214 1.43049
                  }
                }
              }
              JOINT lIndex1
              {
                OFFSET 7.75947 0.938293 5.60832
                CHANNELS 3 Zrotation Xrotation Yrotation
                JOINT lIndex2
                {
                  OFFSET 2.54057 -0.884171 1.56538
                  CHANNELS 3 Zrotation Xrotation Yrotation
                  End Site
                  {
                    OFFSET 1.62519 -0.234802 1.16502
                  }
                }
              }
              JOINT lMid1
              {
                OFFSET 8.24714 1.18213 3.41376
                CHANNELS 3 Zrotation Xrotation Yrotation
                JOINT lMid2
                {
                  OFFSET 3.10165 -0.590103 1.0647
                  CHANNELS 3 Zrotation Xrotation Yrotation
                  End Site
                  {
                    OFFSET 2.48547 -0.328903 0.83742
                  }
                }
              }
              JOINT lRing1
              {
                OFFSET 8.82822 0.546677 1.51678
                CHANNELS 3 Zrotation Xrotation Yrotation
                JOINT lRing2
                {
                  OFFSET 2.60934 -0.819778 -0.0198488
                  CHANNELS 3 Zrotation Xrotation Yrotation
                  End Site
                  {
                    OFFSET 2.33842 -0.294052 0.168128
                  }
                }
              }
              JOINT lPinky1
              {
                OFFSET 8.27202 -0.0477905 -0.4584
                CHANNELS 3 Zrotation Xrotation Yrotation
                JOINT lPinky2
                {
                  OFFSET 1.82734 -0.647385 -0.700984
                  CHANNELS 3 Zrotation Xrotation Yrotation
                  End Site
                  {
                    OFFSET 1.69225 -0.51767 -0.607171
                  }
                }
              }
            }
          }
        }
      }
    }
  }
  JOINT rButtock
  {
    OFFSET -8.77824 4.35084 1.2192
    CHANNELS 3 Zrotation Xrotation Yrotation
    JOINT rThigh
    {
      OFFSET 0 -1.70687 -2.19456
      CHANNELS 3 Zrotation Xrotation Yrotation
      JOINT rShin
      {
        OFFSET 0 -36.8199 0.73152
        CHANNELS 3 Zrotation Xrotation Yrotation
        JOINT rFoot
        {
          OFFSET 0.73152 -45.1104 -5.12064
          CHANNELS 3 Zrotation Xrotation Yrotation
          End Site
          {
            OFFSET -1.1221 -3.69964 12.103
          }
        }
      }
    }
  }
  JOINT lButtock
  {
    OFFSET 8.77824 4.35084 1.2192
    CHANNELS 3 Zrotation Xrotation Yrotation
    JOINT lThigh
    {
      OFFSET 0 -1.70687 -2.19456
      CHANNELS 3 Zrotation Xrotation Yrotation
      JOINT lShin
      {
        OFFSET 0 -36.8199 0.73152
        CHANNELS 3 Zrotation Xrotation Yrotation
        JOINT lFoot
        {
          OFFSET -0.73152 -45.1104 -5.12064
          CHANNELS 3 Zrotation Xrotation Yrotation
          End Site
          {
            OFFSET 1.1221 -3.69964 12.103
          }
        }
      }
    }
  }
}
MOTION
Frames:	8
Frame Time:	0.03333
0.0 0.0 0.0 0.0 0.0 0.0 0.0 0.0 0.0 0.0 0.0 0.0 0.0 0.0 0.0 0.0 0.0 0.0 0.0 0.0 0.0 0.0 0.0 0.0 0.0 0.0 0.0 0.0 0.0 0.0 0.0 0.0 0.0 0.0 0.0 0.0 0.0 0.0 0.0 0.0 0.0 0.0 0.0 0.0 0.0 0.0 0.0 0.0 0.0 0.0 0.0 0.0 0.0 0.0 0.0 0.0 0.0 0.0 0.0 0.0 0.0 0.0 0.0 0.0 0.0 0.0 0.0 0.0 0.0 0.0 0.0 0.0 0.0 0.0 0.0 0.0 0.0 0.0 0.0 0.0 0.0 0.0 0.0 0.0 0.0 0.0 0.0 0.0 0.0 0.0 0.0 0.0 0.0 0.0 0.0 0.0 0.0 0.0 0.0 0.0 0.0 0.0 0.0 0.0 0.0 0.0 0.0 0.0 0.0 0.0 0.0 0.0 0.0 0.0 0.0 0.0 0.0 0.0 0.0 0.0 0.0 0.0 0.0 0.0 0.0 0.0 0.0 0.0 0.0 0.0 0.0 0.0
-0.4959 78.5415 -1.7413 37.20853 89.139502 39.481988 -5.536186 5.183105 -132.985291 7.507841 4.45197 135.418165 0.920599 6.115303 52.170137 -9.40542 -13.310761 -85.219904 -0.001637 0.0 -0.002909 0.005011 0.0 0.001099 -85.537962 68.183266 88.688854 178.473088 75.384163 160.375214 -10.321124 -80.028396 -84.365436 -153.387042 20.327618 135.181289 169.032096 -27.078264 86.618308 -156.128818 6.601016 89.881091 -134.538327 10.541044 112.295604 142.109161 -66.103248 86.500345 -160.826366 -7.141648 143.316839 -172.312882 -31.361009 143.655423 -145.121952 1.974231 -179.749282 -152.569309 -24.851879 -175.378242 -152.347686 37.911199 -147.687848 -24.511835 -39.110259 -25.407978 157.644376 -66.710759 -175.896475 162.191268 19.680622 -161.625295 20.749991 -25.110083 -89.24568 1.277743 17.540643 -1.969978 2.608059 2.554797 -0.456638 137.221705 -40.289408 -117.328368 50.386525 40.825955 -40.025064 162.961114 -8.571339 -112.311215 161.154124 -8.160643 -143.464722 -2.370764 2.427659 -0.702945 -0.00079 -0.060774 0.019609 -7.450264 26.544697 -4.023199 112.780588 -40.022226 110.809719 -58.159563 83.236207 19.723742 -179.978687 75.749869 -0.017536 -145.02017 -1.495283 89.424244 109.812639 11.157722 -3.026952 -101.888813 69.023707 79.413475 -0.000453 0.001447 0.000583 3.990545 -11.433338 -55.801504 -42.337301 16.970752 161.629222 -123.964458 53.476092 18.925528
-0.6197 78.24560000000001 -2.5042999999999997 -60.867592 89.155348 -59.372392 -2.5057 7.398694 -96.123864 10.49302 -2.326508 100.020552 -1.855552 4.61414 32.900919 -3.292233 -15.152521 -65.769804 -0.002585 -0.0 0.000686 0.003268 0.0 0.002316 -155.613664 -4.236537 161.990734 97.56183 72.758038 -80.058483 -12.923684 47.520077 48.145672 -9.661056 -47.871362 -11.445903 -169.571938 -7.254095 89.928706 -86.635254 8.294291 32.342963 16.96721 -30.493718 -5.900326 -158.420575 -14.213819 111.373131 78.536549 -80.919423 49.686113 172.82037 -58.8942 136.81848 -145.120877 1.974946 -179.747835 -155.055612 -5.712446 -178.485479 -87.573681 -50.207128 -85.93022 2.25201 -2.973705 -1.99333 -4.225866 -44.097124 8.515383 133.707701 74.331575 -136.678578 3.485493 -34.92138 -93.138059 6.599127 26.148096 -1.324452 121.363419 30.329132 -71.958373 29.998945 -15.849145 -29.586099 152.104958 -18.557016 -121.366891 -0.909874 19.599346 5.423918 -0.541733 -1.589822 0.29517 83.257369 64.349538 -75.222437 0.00052 -0.060796 0.019432 -9.973892 4.765017 -0.548297 144.984225 11.469772 141.652707 1.887416 -9.683449 5.39336 -0.000379 0.000244 0.000487 82.582156 -46.975922 84.562935 -147.831421 51.879261 70.976219 98.400151 -0.664924 -80.144237 179.992801 75.749367 0.007428 -172.174081 64.054159 -0.0 -16.282233 39.923517 -47.752963 22.133156 -21.665869 76.064354
-0.6156 77.96610000000001 -3.1104 -72.750263 89.107382 -72.102307 -2.092964 7.886274 -110.007438 10.470269 0.412175 114.87023 4.760162 16.627497 115.053526 -23.764108 13.172234 -145.157888 -0.000877 0.0 -0.001807 -1.8e-05 -0.0 0.000549 -82.877676 68.299649 86.000585 -97.512391 81.538229 85.284314 -57.455996 -55.154054 -125.354226 -170.024792 -16.6778 147.470134 -178.926585 -16.454003 89.422882 22.973503 -67.359582 17.380441 -166.822336 -43.973819 122.060927 -9.835241 36.261659 3.667159 -15.421483 32.962163 11.294818 -150.592863 27.013129 136.387627 -73.623402 72.972901 91.553825 4.935614 -24.919638 -7.895045 39.988998 85.641608 -0.902734 -6.525141 -17.496325 -7.821577 -2.822166 -21.775454 4.329881 -3.749769 -26.516539 -1.22671 146.190088 -68.868769 -75.75734 -165.773985 -32.473447 -140.798518 177.747549 -15.324183 -89.570075 -150.51881 -46.251258 -102.643498 173.600074 -52.692947 -119.892975 -13.863289 1.711364 8.803925 -89.035007 -81.393494 -59.759484 168.317906 -19.571587 -144.080955 -0.004293 1.771713 -0.554365 -9.09216 12.714339 -1.665416 25.539738 -38.086453 24.599933 158.229758 52.583487 149.462247 -0.000121 0.001086 -0.0 89.428224 -39.739918 89.634454 -167.467002 39.263777 -50.047073 -69.439803 -12.891373 130.398876 -0.000295 -0.000161 -0.000148 3.370314 -13.680056 166.752875 31.661547 -33.921612 166.717102 81.601876 49.092905 11.815242
-0.49179999999999996 77.76950000000001 -3.4108 39.40039 89.685409 39.016109 -6.136966 12.379744 -0.0 0.367068 -13.334376 6.17728 -15.105409 15.86428 -87.486063 27.849226 15.681187 50.763846 -0.004078 0.0 -0.001422 0.002705 0.0 0.00239 -8.807619 32.933751 10.283614 -65.232223 62.362246 68.432416 -172.177211 -30.157441 -129.518221 -8.573092 -22.304621 -5.877873 -169.571923 -7.253934 89.929691 -90.862861 9.608947 35.266022 88.792317 -75.498782 40.04913 -128.128909 28.90613 105.605234 -152.826358 14.793105 138.514386 86.527833 -77.981613 57.725292 -145.119871 0.310037 -179.225852 -11.661114 -65.413845 -32.714362 -13.27828 -25.410469 -12.6317 4.136815 3.278449 0.860106 130.419902 54.548911 -134.287118 76.67745 76.667794 -97.266898 2.146795 -8.90728 136.217883 -172.648477 -21.372256 -142.970538 68.482649 37.953925 -35.659373 146.916794 -34.040664 -85.799283 27.490684 30.685122 -20.155558 75.490243 49.376408 -55.550614 -0.04762 -0.138578 0.026789 -9.843093 -20.362099 1.548383 145.118426 0.267551 179.212824 -7.728497 -21.548926 12.220049 145.80701 14.096713 142.380492 161.808711 54.333395 146.746032 -179.963922 75.748368 -0.029684 -120.846645 -9.783943 17.69001 -168.965848 42.10046 -149.680689 15.369043 64.293665 -29.553671 0.007302 -0.001622 0.007302 2.642726 -12.725691 170.22629 36.720189 -38.562862 113.937185 67.962584 -32.862038 140.26626
-0.5168 77.85220000000001 -3.4537 100.550881 88.826998 99.499774 -6.562352 8.582215 -142.371871 5.228951 6.978205 148.188384 -14.341003 10.8755 -57.08136 27.160206 1.551825 22.219868 -0.0013 0.0 -0.001168 -0.00107 -0.0 0.00148 -159.220208 -48.380589 170.493289 -74.555113 85.651405 90.742982 -176.719465 -13.998833 89.902384 -174.688913 -2.161673 142.625394 -171.705648 -9.388732 89.94799 -149.624151 5.208018 77.400846 -166.822188 -43.973844 122.060993 2.972017 20.054202 -4.794687 -171.869988 -41.091202 145.16045 -7.588501 26.102072 6.400183 -145.110233 -0.627098 -178.930515 -152.347556 76.081209 167.142834 -23.392259 -36.349218 -22.493263 38.555149 80.765241 -1.372184 130.42009 54.548983 -134.287229 -15.763041 15.160489 -10.734514 45.371608 65.439719 96.283554 -167.542221 -34.539631 -140.90302 7.759794 7.438552 -1.682123 8.041534 8.721946 -11.333146 43.648997 38.80304 -34.060372 169.615947 -19.11293 -111.723004 6.647422 17.108614 -4.326317 -168.074253 -64.100147 -133.21347 0.015662 -1.323211 0.415469 155.339245 -1.621676 -172.046355 132.16247 -18.654483 129.691848 -7.276652 11.994387 -1.431782 -0.004582 -0.000883 -0.002291 96.257996 -26.775898 -87.171795 166.521686 -35.611709 23.61416 -86.906643 24.350586 79.713587 -179.994988 75.750525 -0.005172 -177.311974 64.258971 123.60671 40.431982 -13.445099 -95.253501 110.167453 -11.165827 -2.030606
-0.6972 77.8112 -3.2798000000000003 132.249349 88.380538 131.635873 -8.640648 11.788494 -0.0 2.107071 -12.425422 5.234737 5.448397 12.603178 87.892335 -23.19981 3.364937 -122.167139 0.001403 0.0 0.003539 0.001099 0.0 0.000828 -155.519638 -3.613836 161.859075 6.609013 -24.591416 2.825219 7.641961 1.884682 -88.522868 178.415722 -8.766019 143.465988 -0.475395 0.467739 0.073834 -122.833819 -14.527571 110.200385 -162.919734 -37.928835 122.630624 -15.840399 41.304619 7.703644 -36.036219 51.723565 29.831017 167.990576 -64.089644 133.003816 -0.014695 -1.322895 -0.417548 -156.006088 -13.74868 173.483793 -87.576901 -50.207888 -85.929258 -153.808241 36.290198 -147.029145 -0.118094 -0.713999 0.158375 80.289433 87.099934 -88.129005 123.612623 -8.494241 6.831214 -42.347946 -67.548041 -28.077014 7.759341 7.438778 -1.681888 -4.79251 -4.147285 -1.340189 27.42077 30.63939 -20.098994 101.481511 45.605187 -76.987879 151.477527 17.841522 -137.537785 163.569184 -5.890932 -143.097143 -0.004395 1.771241 -0.55744 152.304136 28.313381 -167.394391 125.807778 -27.878401 123.552829 -17.345671 43.702417 -6.474693 -0.000579 0.000274 0.000744 93.827703 -28.734179 -180.0 152.997483 16.559341 115.104664 -56.882683 24.783905 115.817532 0.000686 0.000216 -0.000882 2.168925 -10.406466 -0.0 -11.684843 45.88182 97.713904 -99.203355 47.677396 -6.347772
-0.9095000000000001 77.75659999999999 -2.8812 159.694323 87.935365 160.229712 -6.475521 9.063392 -51.298844 8.791181 -6.909483 54.580331 3.765145 8.831646 64.350105 -17.051996 -4.948471 -99.989571 0.001122 0.0 0.000148 0.001122 0.0 0.000148 -151.97216 14.763822 157.370671 8.607644 -33.250577 7.205363 157.438369 -23.775273 -142.163428 -18.112575 38.448388 4.663864 -166.744712 -4.418613 89.780233 171.385461 -23.903951 94.067138 -150.88604 -16.291262 120.978763 -177.720617 -43.852949 115.001902 89.034881 -81.393642 59.759156 -163.948228 -6.180376 143.290288 -0.013455 -1.322998 -0.416908 0.35971 -79.141128 -20.337236 -153.204692 41.295659 -148.283865 -42.862889 -48.838895 -42.922515 159.220411 -48.028524 -170.415129 146.425158 42.496957 -148.02819 178.297909 -11.757917 -26.754521 -176.286451 -11.13366 -143.623006 -175.880391 -21.25761 -88.49325 -141.654704 -57.793508 -103.859499 -49.213078 -66.048629 -7.055435 7.966684 32.598285 -7.354029 160.096773 -4.901547 -142.968362 -2.663228 1.634277 -0.585994 70.379906 -72.129418 87.280452 -13.868333 29.73893 0.477855 -5.069889 14.897287 -4.56798 146.143817 6.925449 142.466566 5.8e-05 0.000302 -2.9e-05 91.820564 -34.342659 -88.438831 157.934759 -42.285341 -54.031848 -46.539167 7.493919 62.748564 -0.012074 0.000241 -0.012074 4.346999 -13.219454 -78.550284 -45.208854 -2.251293 133.895677 129.278866 -37.350106 17.531831
